<svg xmlns="http://www.w3.org/2000/svg" width="90.45" height="85" viewBox="0 0 90.45 85"><title>Asset 4</title><path d="M4.67,85A4.55,4.55,0,0,1,0,80.61V4.39A4.55,4.55,0,0,1,4.67,0H85.78a4.54,4.54,0,0,1,4.67,4.39V80.61A4.54,4.54,0,0,1,85.78,85ZM3.1,82.09H87.35V2.91H3.1Zm60.84-8.82a1.51,1.51,0,0,1-1.55-1.45V60.09a1.52,1.52,0,0,1,1.55-1.46H76.42A1.51,1.51,0,0,1,78,60.09V71.82a1.5,1.5,0,0,1-1.55,1.45Zm1.56-2.91h9.37V61.55H65.5ZM39,73.27a1.5,1.5,0,0,1-1.55-1.45V60.09A1.51,1.51,0,0,1,39,58.63H51.47A1.52,1.52,0,0,1,53,60.09V71.82a1.51,1.51,0,0,1-1.55,1.45Zm1.55-2.91h9.38V61.55H40.54ZM14,73.27a1.5,1.5,0,0,1-1.55-1.45V60.09A1.51,1.51,0,0,1,14,58.63H26.51a1.52,1.52,0,0,1,1.55,1.46V71.82a1.51,1.51,0,0,1-1.55,1.45Zm1.55-2.91H25V61.55H15.58ZM39,49.82a1.51,1.51,0,0,1-1.55-1.46V36.64A1.51,1.51,0,0,1,39,35.18a1.65,1.65,0,0,1,.69.15L52.16,41.2a1.42,1.42,0,0,1,0,2.6L39.68,49.67A1.65,1.65,0,0,1,39,49.82ZM63.94,26.37a1.52,1.52,0,0,1-1.55-1.46V13.18a1.51,1.51,0,0,1,1.55-1.45H76.42A1.5,1.5,0,0,1,78,13.18V24.91a1.51,1.51,0,0,1-1.55,1.46Zm1.56-2.92h9.37V14.64H65.5ZM39,26.37a1.51,1.51,0,0,1-1.55-1.46V13.18A1.5,1.5,0,0,1,39,11.73H51.47A1.51,1.51,0,0,1,53,13.18V24.91a1.52,1.52,0,0,1-1.55,1.46Zm1.55-2.92h9.38V14.64H40.54ZM14,26.37a1.51,1.51,0,0,1-1.55-1.46V13.18A1.5,1.5,0,0,1,14,11.73H26.51a1.51,1.51,0,0,1,1.55,1.45V24.91a1.52,1.52,0,0,1-1.55,1.46Zm1.55-2.92H25V14.64H15.58Z" fill="#fff"/></svg>