<svg xmlns="http://www.w3.org/2000/svg" width="90.45" height="85" viewBox="0 0 90.45 85"><title>Asset 5</title><path d="M88.9,85a1.53,1.53,0,0,1-.69-.17L65.74,73.5l-.4,2a7.83,7.83,0,0,1-7.63,6.32H7.79A7.83,7.83,0,0,1,0,74V36.2a7.84,7.84,0,0,1,6.36-7.71l3.27-.62L7.08,25.72A11,11,0,0,1,14,6.3a11,11,0,0,1,7.13,19.26L18,28.34h25.8L40,25.48a14,14,0,1,1,16.65,0l-3.8,2.86h4.84a7.83,7.83,0,0,1,7.63,6.32l.4,2L88.21,25.35a1.52,1.52,0,0,1,.69-.16,1.56,1.56,0,0,1,1.55,1.57V83.43A1.5,1.5,0,0,1,90,84.55,1.57,1.57,0,0,1,88.9,85ZM65.5,40.32V69.87l21.85,11V29.29ZM7.79,31.47A4.71,4.71,0,0,0,3.1,36.2V74a4.71,4.71,0,0,0,4.69,4.73H57.71A4.71,4.71,0,0,0,62.39,74V36.2a4.71,4.71,0,0,0-4.68-4.73ZM48.35,3.13a11,11,0,1,0,10.92,11A11,11,0,0,0,48.35,3.13ZM14,9.43a7.88,7.88,0,1,0,7.81,7.88A7.85,7.85,0,0,0,14,9.43Zm3.12,59.82a4.69,4.69,0,0,1-4.67-4.71V45.65a4.7,4.7,0,0,1,4.67-4.72H35.87a4.71,4.71,0,0,1,4.67,4.72V64.54a4.7,4.7,0,0,1-4.67,4.71Zm-1.57-3.13H37.44V44.06H15.58Z" fill="#fff"/></svg>