<svg xmlns="http://www.w3.org/2000/svg" width="70" height="64.17" viewBox="0 0 70 64.17"><title>Asset 1</title><path d="M60.4,0H9.6A9.6,9.6,0,0,0,0,9.6V43.4A9.6,9.6,0,0,0,9.6,53H14a2.67,2.67,0,0,0,2.8-2.5,2.61,2.61,0,0,0-2.5-2.8H9.6a4.44,4.44,0,0,1-4.4-4.4V9.6A4.44,4.44,0,0,1,9.6,5.2H60.4a4.44,4.44,0,0,1,4.4,4.4V43.4a4.44,4.44,0,0,1-4.4,4.4H56a2.65,2.65,0,0,0-.3,5.3h4.7A9.6,9.6,0,0,0,70,43.5V9.6A9.6,9.6,0,0,0,60.4,0Z" fill="#fff"/><path d="M54.3,41.7a27.19,27.19,0,0,0-38.5-.1l-.1.1a2.66,2.66,0,0,0,.1,3.7,2.74,2.74,0,0,0,3.6,0,22.06,22.06,0,0,1,31.1-.2c.1,0,.1.1.2.2a2.73,2.73,0,0,0,1.9.8,2.65,2.65,0,0,0,2.6-2.6,3.38,3.38,0,0,0-.9-1.9Z" fill="#fff"/><path d="M35,44.4a16.82,16.82,0,0,0-11.8,4.9A2.62,2.62,0,1,0,26.9,53,11.66,11.66,0,0,1,43,53a2.66,2.66,0,0,0,3.8,0,2.66,2.66,0,0,0,0-3.7A16.82,16.82,0,0,0,35,44.4Z" fill="#fff"/><path d="M32.2,56.6h0a4.32,4.32,0,0,0-.2,6.2l.1.1h0a4.29,4.29,0,0,0,6.1,0h0a4.36,4.36,0,0,0-6-6.3Z" fill="#fff"/></svg>