<svg xmlns="http://www.w3.org/2000/svg" width="70" height="70" viewBox="0 0 70 70"><title>Asset 9</title><path d="M35,22.75A12.25,12.25,0,1,0,47.25,35,12.26,12.26,0,0,0,35,22.75ZM35,42a7,7,0,1,1,7-7A7,7,0,0,1,35,42Z" fill="#fff"/><path d="M67.61,27.53A6.31,6.31,0,0,1,63.39,17.2a2.62,2.62,0,0,0-.19-3.52L56.31,6.82a2.65,2.65,0,0,0-3.53-.16,6.22,6.22,0,0,1-6.42.94A6.24,6.24,0,0,1,42.5,2.33,2.63,2.63,0,0,0,39.89,0H30.14a2.64,2.64,0,0,0-2.61,2.39A6.25,6.25,0,0,1,23.67,7.6a6.31,6.31,0,0,1-6.51-1,2.62,2.62,0,0,0-3.48.22L6.82,13.69a2.69,2.69,0,0,0-.14,3.56,6.23,6.23,0,0,1,1,6.41,6.25,6.25,0,0,1-5.26,3.87A2.63,2.63,0,0,0,0,30.14v9.75A2.64,2.64,0,0,0,2.4,42.5a6.22,6.22,0,0,1,5.2,3.87,6.17,6.17,0,0,1-.88,6.34,2.62,2.62,0,0,0,.1,3.6l6.86,6.89a2.68,2.68,0,0,0,3.57.15,6.24,6.24,0,0,1,6.42-1,6.33,6.33,0,0,1,3.88,5.35A2.62,2.62,0,0,0,30.14,70h9.75a2.64,2.64,0,0,0,2.61-2.4,6.23,6.23,0,0,1,3.86-5.2A6.3,6.3,0,0,1,53,63.47a2.64,2.64,0,0,0,3.36-.29l6.89-6.86a2.64,2.64,0,0,0,.18-3.53A6.32,6.32,0,0,1,67.63,42.5,2.62,2.62,0,0,0,70,39.89V30.14A2.64,2.64,0,0,0,67.61,27.53ZM64.75,37.75A11.61,11.61,0,0,0,58,54.1L54.11,58a11.58,11.58,0,0,0-16.36,6.79H32.28a11.34,11.34,0,0,0-6.6-7.19,11.34,11.34,0,0,0-9.79.42L12,54.11a11.34,11.34,0,0,0,.41-9.76,11.34,11.34,0,0,0-7.2-6.58V32.29a11.36,11.36,0,0,0,7.23-6.62A11.36,11.36,0,0,0,12,15.89L15.89,12a11.37,11.37,0,0,0,9.79.42,11.37,11.37,0,0,0,6.61-7.19h5.46a11.38,11.38,0,0,0,6.6,7.2,11.38,11.38,0,0,0,9.77-.39L58,15.89a11.58,11.58,0,0,0,6.77,16.38Z" fill="#fff"/></svg>