<svg xmlns="http://www.w3.org/2000/svg" width="70" height="70" viewBox="0 0 70 70"><title>Asset 11</title><path d="M6.56,28.44A6.56,6.56,0,1,1,0,35,6.57,6.57,0,0,1,6.56,28.44Zm8.33,20.11a6.56,6.56,0,1,1-6.56,6.56A6.55,6.55,0,0,1,14.89,48.55Zm13.55-42A6.56,6.56,0,1,1,35,13.13,6.56,6.56,0,0,1,28.44,6.56ZM35,56.88a6.56,6.56,0,1,1-6.56,6.56A6.56,6.56,0,0,1,35,56.88ZM55.11,8.33a6.56,6.56,0,1,1-6.56,6.56A6.56,6.56,0,0,1,55.11,8.33Zm0,40.22a6.56,6.56,0,1,1-6.56,6.56A6.56,6.56,0,0,1,55.11,48.55ZM56.88,35a6.56,6.56,0,1,1,6.56,6.56A6.56,6.56,0,0,1,56.88,35Z" fill="#fff"/></svg>