<svg xmlns="http://www.w3.org/2000/svg" width="834" height="779.87" viewBox="0 0 834 779.87"><title>Group 4831</title><g style="isolation:isolate"><path d="M55.1,628.4,94,738.2l38.7-109.7h40.9V779.8H142.3V738.4l3.1-71.4L104.6,779.8H83.2L42.5,667.1l3.1,71.3v41.4H14.4V628.4Z" transform="translate(-14.4 0.07)" fill="#8f3b8a"/><path d="M256.7,680.6l28.4-52.2H321l-44.1,75,45.2,76.3H285.8l-29.1-53-29.1,53H191.3l45.2-76.3-44.1-75h35.9Z" transform="translate(-14.4 0.07)" fill="#8f3b8a"/></g><g style="isolation:isolate"><path d="M424,779.7H392.8V628.4H424Z" transform="translate(-14.4 0.07)" fill="#331951"/><path d="M484,726.4v53.3H452.8V628.4h59c11.4,0,21.4,2.1,30,6.2a46.43,46.43,0,0,1,19.9,17.7,50,50,0,0,1,7,26.1c0,14.8-5.1,26.5-15.2,35.1s-24.2,12.8-42.1,12.8H484Zm0-25.2h27.9c8.2,0,14.5-1.9,18.9-5.8s6.5-9.4,6.5-16.6c0-7.4-2.2-13.4-6.5-18s-10.4-6.9-18.1-7.1H484Z" transform="translate(-14.4 0.07)" fill="#331951"/><path d="M704,653.7H657.7V779.8H626.5V653.7H580.8V628.4H704Z" transform="translate(-14.4 0.07)" fill="#331951"/><path d="M779.4,742.2l34.3-113.8h34.7L795.7,779.7H763.2L710.7,628.4h34.6Z" transform="translate(-14.4 0.07)" fill="#331951"/></g><path d="M643,227.7l-4.2-13.1c-14-43.9-59-71.9-107.2-68.8l-27.8,1.8c10.3,6.5,23.7,16.2,27.9,23a26.4,26.4,0,0,1,1.8,3.8c33.2-.8,63,18.9,72.5,49l4,12.8c17.8,56.6,17.8,157.5,0,212.5l-4,12.5c-9.6,29.8-40.5,46.9-74.4,42.2L273.1,467.6c-23.8-3.3-44.1-23.2-50.2-48.5l-2.5-10.5c-10.8-45.1-10.8-123.3,0-167.5l2.5-10.2c6-24.5,25.9-42.4,49.4-43.9,1.3-4.1,3.7-7.3,7.3-11.3a158.91,158.91,0,0,1,15-14.6l-21.5,1.4c-33.4,2.2-61.8,28-70.2,62.6l-2.4,10.1c-11.6,47.9-11.6,128.6,0,177.6l2.4,10.3c8.4,35.3,36.7,63.7,70.2,68.9l258.5,40c48.2,7.5,93.2-16.5,107.2-59.1l4.2-12.7C663.3,398.7,663.3,291.1,643,227.7Z" transform="translate(-14.4 0.07)" fill="#331951"/><g style="isolation:isolate"><path d="M300.2,406.5c.3-7.6.8-16.8,1.5-26h-.2c-2.7,7.9-6.1,16.7-9.1,23.9l-9.7,24-11.1-.9-4.8-24.9c-1.5-7.7-2.8-16.8-3.7-25.2h-.2c-1,8.5-2.1,18.2-3.2,26.1l-3.2,23.9-13.2-1.1,9.2-62.8,19,1.5,4.5,21.6c1.5,7.5,2.7,15.5,3.5,23h.4c2.3-7.2,5.1-15.3,7.8-22.2l8.4-20.4,18.7,1.5L313,431.9l-13.9-1.1Z" transform="translate(-14.4 0.07)" fill="#8f3b8a"/><path d="M357.4,435.4l-4.8-11.9c-2-4.6-3.2-8-4.7-11.8h-.2c-1.6,3.5-3.5,6.7-5.9,10.9l-6.1,11-16.3-1.3,20.9-30.5-15.1-32.6,16.4,1.3,4.6,12c1.6,4,2.7,7.2,3.9,10.9h.2c1.8-3.9,3.3-6.6,5.2-10.1l6.3-11.1,16.3,1.3-20.3,29.4,16.1,33.8Z" transform="translate(-14.4 0.07)" fill="#8f3b8a"/></g><g style="isolation:isolate"><path d="M420,377l-5.1,63.1-14.2-1.2,5.1-63.1Z" transform="translate(-14.4 0.07)" fill="#331951"/><path d="M432.3,378.8a107.85,107.85,0,0,1,19.4.3c8.8.7,14.9,2.9,18.9,6.6a18.19,18.19,0,0,1,5.6,15.2c-.5,6.2-2.9,11.4-7,14.5-5.2,4.1-12.6,5.7-21.1,5a25.07,25.07,0,0,1-4.8-.8l-1.8,22.7-14.1-1.1Zm11.8,29.8a21.44,21.44,0,0,0,4.7.8c7.6.6,12.6-2.8,13.1-9.2.5-5.8-3.3-9.6-10.5-10.2a26.6,26.6,0,0,0-5.8,0Z" transform="translate(-14.4 0.07)" fill="#331951"/><path d="M498.1,395.4l-17-1.4,1-12,48.5,3.9-1,12-17.2-1.4-4.2,51.2L494,446.5Z" transform="translate(-14.4 0.07)" fill="#331951"/><path d="M550.5,451.1l-15.1-64.8,15.6,1.3,5.5,27.3c1.5,7.8,2.9,15,3.8,23h.3c2.2-7.5,4.8-14.8,7.5-21.8l10.3-26.3,15.2,1.2-26.4,61.4Z" transform="translate(-14.4 0.07)" fill="#331951"/></g><path d="M518.2,178.1c-2.7-4.6-18.5-16.4-31.1-23.4a167.48,167.48,0,0,0-76.2-21.6v-.7a17.21,17.21,0,0,0-5.1-12.5L492.9,15.3a8.51,8.51,0,1,0-1.8-11.9,8.37,8.37,0,0,0,.7,10.9L391.6,114,332.8,68.5a7,7,0,1,0-.9,1l47.2,52.2a20.29,20.29,0,0,0-5.4,13.6v.8c-33.6,6.8-64.8,24.4-86.3,48.1-4.6,5-5.3,6.7-5.3,12.4,0,4,.1,4.7,1.1,6.6a18.08,18.08,0,0,0,7.1,7.4,10.55,10.55,0,0,0,5.5,1.2c5.1.1,7.1-.9,12.6-6.5a146.18,146.18,0,0,1,18.5-15.7,134,134,0,0,1,33.9-16.8c2.1-.6,4.6-1.4,5.5-1.7s4.6-1.1,8.3-2c9.7-2.1,25.9-3,36.1-2a134.36,134.36,0,0,1,74.6,31.3c7,5.8,9.7,7,15.8,6.8,3.9-.1,5-.4,7.6-1.7a25.49,25.49,0,0,0,9.7-9.3A17,17,0,0,0,518.2,178.1Z" transform="translate(-14.4 0.07)" fill="#8f3b8a"/><path d="M465.8,221.5a105.61,105.61,0,0,0-61.4-26.4,193.06,193.06,0,0,0-22.8.8,141.15,141.15,0,0,0-20.3,5.4,97.76,97.76,0,0,0-36.5,23.9c-5.1,5.4-5.9,7.2-5.9,12.5a14.43,14.43,0,0,0,1.1,6.4,16.72,16.72,0,0,0,11.9,10,8.66,8.66,0,0,0,5.5-.3c3.5-.9,5.6-2.3,9.4-6.1a65.46,65.46,0,0,1,45.6-19.2c18.6-.4,35,6,49.7,19.4,5.1,4.6,7.4,5.5,13.4,5.5,5.4,0,8.2-1.2,12.3-5.2s5.5-7.3,5.5-12.7C473.3,229.6,471.9,227,465.8,221.5Z" transform="translate(-14.4 0.07)" fill="#8f3b8a"/><path d="M404,253.9c-3.7-1.4-4.7-1.5-10.3-1.7-5.3-.1-6.7,0-10.2,1a33.52,33.52,0,0,0-15.9,9.6c-10.3,10.9-12.6,25.8-6,39.8,1.8,3.9,2.7,5.1,6.3,8.9,4.8,5,8.6,7.5,14,9.5a40.44,40.44,0,0,0,16.9,1.8c11.6-1.6,22.8-10.4,27.5-21.8,5.3-13,1.9-28.3-8.5-38.4A42.45,42.45,0,0,0,404,253.9Z" transform="translate(-14.4 0.07)" fill="#8f3b8a"/><path d="M408.8,289.2,384,274.5V303Z" transform="translate(-14.4 0.07)" fill="#fff"/></svg>
