<svg xmlns="http://www.w3.org/2000/svg" xmlns:xlink="http://www.w3.org/1999/xlink" width="1152.054" height="191" viewBox="0 0 1152.054 191">
  <defs>
    <linearGradient id="linear-gradient" x1="0.5" y1="1" x2="0.5" gradientUnits="objectBoundingBox">
      <stop offset="0" stop-color="#696969"/>
      <stop offset="0.146" stop-color="#fff"/>
      <stop offset="0.252" stop-color="#dcdcdc"/>
      <stop offset="0.341" stop-color="#c6c6c6"/>
      <stop offset="0.399" stop-color="#bfbfbf"/>
      <stop offset="0.753" stop-color="#5a5a5a"/>
      <stop offset="0.86" stop-color="#838383"/>
      <stop offset="1" stop-color="#bfbfbf"/>
    </linearGradient>
  </defs>
  <g id="Group_523" data-name="Group 523" transform="translate(-903.973 -496.136)">
    <rect id="Rectangle_460" data-name="Rectangle 460" width="1132.054" height="171" rx="85.5" transform="translate(913.973 506.136)" fill="#8f3b8a"/>
    <g id="Group_468" data-name="Group 468" transform="translate(-3046 -24)">
      <circle id="Ellipse_8" data-name="Ellipse 8" cx="57" cy="57" r="57" transform="translate(3998 558.636)" fill="#f2f2f2"/>
      <path id="Path_373" data-name="Path 373" d="M4086.474,631.3a9.473,9.473,0,0,0-4.4-2.307,32.1,32.1,0,0,1-14.4-7.95,22.04,22.04,0,1,0-24.985.263,32.342,32.342,0,0,1-13.112,7.219l-1.054.287a10.917,10.917,0,0,0-8.523,10.76A11.445,11.445,0,0,0,4031.431,651h47.138A11.465,11.465,0,0,0,4090,639.569,11.542,11.542,0,0,0,4086.474,631.3ZM4038.2,603.049a16.826,16.826,0,1,1,12.332,16.166c-.229-.063-.463-.107-.689-.181-.073-.023-.143-.058-.216-.083a16.2,16.2,0,0,1-1.516-.586l-.008,0A16.785,16.785,0,0,1,4038.2,603.049Zm44.712,40.9a6.035,6.035,0,0,1-4.344,1.8h-47.138a6.189,6.189,0,0,1-6.181-6.181,5.955,5.955,0,0,1,.475-2.381,6.1,6.1,0,0,1,4.161-3.31l1.072-.291a37.6,37.6,0,0,0,16.755-9.727c.05.017.1.021.153.038a21.594,21.594,0,0,0,3.315.843c.19.033.377.063.568.091a22.073,22.073,0,0,0,3.251.268c.073,0,.143-.011.216-.012.1,0,.207-.015.312-.017a22.148,22.148,0,0,0,3.183-.313c.22-.037.437-.068.656-.111a21.117,21.117,0,0,0,3.233-.908c.055-.02.114-.026.167-.047a36.894,36.894,0,0,0,18.061,10.4,4.337,4.337,0,0,1,2.008.993,6.253,6.253,0,0,1,1.914,4.486A6.065,6.065,0,0,1,4082.913,643.947Z" fill="#333"/>
    </g>
    <path id="Path_374" data-name="Path 374" d="M5006.527,520.136H4045.473a95.5,95.5,0,0,0,0,191h961.054a95.5,95.5,0,0,0,0-191Zm0,181H4045.473a85.5,85.5,0,0,1-85.5-85.5h0a85.5,85.5,0,0,1,85.5-85.5h961.054a85.5,85.5,0,0,1,85.5,85.5h0A85.5,85.5,0,0,1,5006.527,701.136Z" transform="translate(-3046 -24)" fill="url(#linear-gradient)"/>
  </g>
</svg>
