<svg xmlns="http://www.w3.org/2000/svg" width="70" height="70" viewBox="0 0 70 70"><title>Asset 10</title><path d="M69.17,19.08,49.52.71A2.61,2.61,0,0,0,47.73,0H22.27a2.61,2.61,0,0,0-1.79.71L.83,19.08A2.63,2.63,0,0,0,.47,22.5L32.85,68.88h0a2.64,2.64,0,0,0,.83.73,1.34,1.34,0,0,0,.24.12,2.3,2.3,0,0,0,2.16,0,1.34,1.34,0,0,0,.24-.12,2.64,2.64,0,0,0,.83-.73h0L69.53,22.5A2.63,2.63,0,0,0,69.17,19.08Zm-49,8.41,7.52,24.86L8.61,25Zm14.24,3.08a2.64,2.64,0,0,0,1.12,0l8.35-1.81L35,58.3,26.06,28.75Zm-8.18-7.15L34.77,8,43.7,23.43,35,25.31Zm23.52,4.07L61.39,25,42.27,52.38Zm12.14-8L49.09,22.27l-9.82-17h7.42ZM23.31,5.25h7l-9.38,17L8.08,19.49Z" fill="#fff"/></svg>