<svg xmlns="http://www.w3.org/2000/svg" width="90.45" height="84.21" viewBox="0 0 90.45 84.21"><title>Asset 6</title><path d="M4.67,84.21A4.68,4.68,0,0,1,0,79.54V23.39a4.68,4.68,0,0,1,4.67-4.67H40.58L19.34,2.79a1.56,1.56,0,0,1-.61-1A1.56,1.56,0,0,1,20.27,0a1.55,1.55,0,0,1,.93.31l24,18,24-18A1.6,1.6,0,0,1,70.18,0a1.53,1.53,0,0,1,1.24.62,1.54,1.54,0,0,1-.31,2.17L49.88,18.72h35.9a4.68,4.68,0,0,1,4.67,4.67V79.54a4.67,4.67,0,0,1-4.67,4.67ZM3.1,23.39V81.11H87.35V21.82H3.1ZM14,71.74a1.55,1.55,0,0,1-1.55-1.55V32.75A1.54,1.54,0,0,1,14,31.2H63.94a1.55,1.55,0,0,1,1.56,1.55V70.19a1.56,1.56,0,0,1-1.56,1.55Zm1.55-3.11H62.39V34.3H15.58Zm60.84-9.37A1.55,1.55,0,1,1,78,57.71,1.56,1.56,0,0,1,76.42,59.26Zm0-12.48A1.55,1.55,0,1,1,78,45.23,1.56,1.56,0,0,1,76.42,46.78Z" fill="#fff"/></svg>