<svg xmlns="http://www.w3.org/2000/svg" width="84.34" height="79.65" viewBox="0 0 84.34 79.65"><title>Asset 7</title><path d="M75.9,0H8.43A8.21,8.21,0,0,0,0,8V71.69a8.21,8.21,0,0,0,8.43,8H75.9a8.22,8.22,0,0,0,8.44-8V8A8.22,8.22,0,0,0,75.9,0Zm2.81,71.69a2.74,2.74,0,0,1-2.81,2.65H8.43a2.74,2.74,0,0,1-2.81-2.65V8A2.74,2.74,0,0,1,8.43,5.31H75.9A2.74,2.74,0,0,1,78.71,8ZM24.48,62.94l-.83.78.83.78a2.54,2.54,0,0,1,0,3.75,2.93,2.93,0,0,1-4,0l-.82-.77-.83.77a2.92,2.92,0,0,1-4,0,2.54,2.54,0,0,1,0-3.75l.82-.78-.82-.78a2.54,2.54,0,0,1,0-3.75,2.92,2.92,0,0,1,4,0l.83.78.82-.78a2.93,2.93,0,0,1,4,0A2.54,2.54,0,0,1,24.48,62.94Zm-9.6-46.23.82-.78-.82-.78a2.54,2.54,0,0,1,0-3.75,2.92,2.92,0,0,1,4,0l.83.78.82-.78a2.93,2.93,0,0,1,4,0,2.54,2.54,0,0,1,0,3.75l-.83.78.83.78a2.54,2.54,0,0,1,0,3.75,2.93,2.93,0,0,1-4,0l-.82-.78-.83.78a2.92,2.92,0,0,1-4,0A2.54,2.54,0,0,1,14.88,16.71ZM69.46,62.94l-.83.78.83.78a2.56,2.56,0,0,1,0,3.75,2.93,2.93,0,0,1-4,0l-.82-.77-.83.77a2.92,2.92,0,0,1-4,0,2.54,2.54,0,0,1,0-3.75l.82-.78-.82-.78a2.54,2.54,0,0,1,0-3.75,2.92,2.92,0,0,1,4,0l.83.78.82-.78a2.93,2.93,0,0,1,4,0A2.56,2.56,0,0,1,69.46,62.94ZM59,15.93a5.63,5.63,0,0,1,11.24,0,5.63,5.63,0,0,1-11.24,0ZM72.27,32.64a2.54,2.54,0,0,1,0,3.75,2.93,2.93,0,0,1-4,0l-.82-.78v4.22c0,7.31-6.31,13.27-14.06,13.27s-14-6-14-13.27a8.22,8.22,0,0,0-8.44-8,8.21,8.21,0,0,0-8.43,8V50.45a2.81,2.81,0,0,1-5.62,0V39.83c0-7.32,6.3-13.28,14.05-13.28S45,32.51,45,39.83a8.45,8.45,0,0,0,16.87,0V35.61l-.83.78a2.92,2.92,0,0,1-4,0,2.54,2.54,0,0,1,0-3.75l5.62-5.31a2.94,2.94,0,0,1,4,0Z" fill="#fff"/></svg>